<?xml version="1.0" encoding="UTF-8" standalone="no"?>
<!-- Created with Inkscape (http://www.inkscape.org/) -->

<svg
   width="33.866665mm"
   height="33.866669mm"
   viewBox="0 0 33.866665 33.866669"
   version="1.1"
   id="svg1"
   xml:space="preserve"
   xmlns="http://www.w3.org/2000/svg"
   xmlns:svg="http://www.w3.org/2000/svg"><defs
     id="defs1" /><g
     id="layer1"
     transform="translate(116.81581,-117.9983)"><rect
       style="fill:#ffffff;stroke-width:0.430317;stroke-linecap:round"
       id="rect1"
       width="33.866665"
       height="33.866665"
       x="-116.81581"
       y="117.99829"
       ry="9.1346378" /><path
       style="fill:#000000;stroke-width:0.178547"
       d="m -108.16192,145.64135 c -0.1309,-0.1309 -0.22226,-0.80544 -0.22226,-1.64104 v -1.41877 l -0.81025,0.7952 c -0.79517,0.7804 -1.45731,1.0317 -1.45731,0.55307 0,-0.13316 0.5102,-0.74699 1.13378,-1.36406 l 1.13378,-1.12195 v -2.52282 c 0,-2.50817 0.002,-2.52247 0.42516,-2.46243 0.41299,0.0587 0.42668,0.1311 0.47765,2.52799 l 0.0525,2.46762 1.12854,1.11677 c 0.6207,0.61422 1.12855,1.22572 1.12855,1.35888 0,0.47863 -0.66214,0.22733 -1.45731,-0.55307 l -0.81025,-0.7952 v 1.43343 c 0,1.49747 -0.26192,2.08701 -0.72256,1.62638 z m 16.061851,0 c -0.1309,-0.1309 -0.22226,-0.80544 -0.22226,-1.64104 v -1.41877 l -0.81025,0.7952 c -0.79517,0.7804 -1.45731,1.0317 -1.45731,0.55307 0,-0.13316 0.50785,-0.74466 1.12855,-1.35888 l 1.12854,-1.11677 0.0525,-2.46762 c 0.051,-2.39689 0.0647,-2.46934 0.47764,-2.52799 0.4227,-0.06 0.42517,-0.0457 0.42517,2.46243 v 2.52282 l 1.13378,1.12195 c 0.62358,0.61707 1.13378,1.2309 1.13378,1.36406 0,0.47863 -0.66214,0.22733 -1.45731,-0.55307 l -0.81025,-0.7952 v 1.43343 c 0,1.49747 -0.26192,2.08701 -0.72255,1.62638 z m -11.686291,-1.20063 c -0.16876,-0.43978 0.37666,-0.90162 0.87719,-0.74275 l 0.41515,0.13176 -0.42702,0.45455 c -0.49837,0.53049 -0.70729,0.56826 -0.86532,0.15644 z m 6.945701,-0.15644 -0.42703,-0.45455 0.41516,-0.13176 c 0.50053,-0.15887 1.04595,0.30297 0.87719,0.74275 -0.15803,0.41182 -0.36695,0.37405 -0.86532,-0.15644 z m -4.680121,-0.82949 c -2.57199,-0.91841 -3.94167,-2.81021 -3.92711,-5.42415 0.0122,-2.20038 1.18349,-4.02563 3.21957,-5.01735 1.24651,-0.60715 3.355901,-0.62857 4.643211,-0.0471 1.11804,0.50496 2.23653,1.62163 2.81609,2.8115 0.62249,1.278 0.62757,3.37295 0.0113,4.64761 -1.23385,2.55195 -4.27962,3.91631 -6.763041,3.02953 z m -6.93397,-7.88477 c -1.23401,-0.34911 -2.34953,-0.67538 -2.47893,-0.72503 -0.1748,-0.0671 -0.0423,-0.81084 0.51526,-2.89295 0.4128,-1.54147 0.76642,-2.82023 0.78581,-2.8417 0.0194,-0.0215 1.56246,0.37424 3.42905,0.87935 1.86658,0.50511 3.75162,1.01394 4.18897,1.13073 1.02495,0.27369 0.91163,0.60864 -0.41077,1.21405 -1.33657,0.6119 -2.39888,1.60754 -3.05502,2.86328 -0.29797,0.57026 -0.58428,1.03013 -0.63625,1.02193 -0.052,-0.008 -1.10412,-0.30055 -2.33812,-0.64966 z m 14.173441,-0.37413 c -0.65665,-1.25444 -1.71962,-2.25005 -3.05503,-2.86142 -1.18487,-0.54246 -1.43584,-0.95199 -0.69545,-1.13489 0.28214,-0.0697 2.17068,-0.57412 4.19676,-1.12095 2.02608,-0.54683 3.6967,-0.97961 3.71249,-0.96174 0.15675,0.1774 1.49135,5.63905 1.39283,5.69994 -0.0725,0.0448 -1.10181,0.34304 -2.28738,0.66276 -1.18556,0.31971 -2.28312,0.61954 -2.43902,0.66629 -0.19116,0.0573 -0.45982,-0.25197 -0.8252,-0.94999 z m -13.866671,-6.45511 c -0.12991,-0.0524 -0.2362,-0.2642 -0.2362,-0.47063 0,-0.55263 0.83008,-0.39712 0.91072,0.17061 0.0592,0.41699 -0.1519,0.5109 -0.67452,0.30002 z m 15.859751,-0.30002 c 0.0801,-0.56424 0.91071,-0.72392 0.91071,-0.17508 0,0.34301 -0.33617,0.60025 -0.78445,0.60025 -0.10265,0 -0.15947,-0.19133 -0.12626,-0.42517 z m -15.340101,-1.18242 c -1.55357,-0.34976 -2.14341,-0.58003 -3.25147,-1.26937 -1.73788,-1.08115 -1.3593,-1.94136 0.8446,-1.9191 1.58728,0.016 3.19517,0.439 4.69671,1.23555 1.2429,0.65934 1.72173,1.33059 1.27082,1.7815 -0.4122,0.4122 -2.12492,0.49466 -3.56066,0.17142 z m 12.532521,0.15328 c -0.2263,-0.044 -0.51547,-0.20543 -0.64262,-0.35862 -0.87315,-1.0521 2.95631,-2.95229 6.01193,-2.98313 1.06438,-0.0108 1.44103,0.0596 1.69887,0.31748 0.30193,0.30193 0.30583,0.37691 0.044,0.84599 -0.69937,1.25288 -5.0387,2.58191 -7.11217,2.17828 z"
       id="path1" /></g></svg>
